<svg xmlns="http://www.w3.org/2000/svg" xmlns:xlink="http://www.w3.org/1999/xlink" viewBox="0 0 339.51 156.91"><defs><style>.cls-1{fill:#399ccb;}.cls-2{fill:#fff;}.cls-3{fill:url(#Безымянный_градиент);}.cls-4{fill:url(#Безымянный_градиент_2);}.cls-5{fill:url(#Безымянный_градиент_3);}.cls-6{fill:url(#Безымянный_градиент_4);}.cls-7{fill:url(#Безымянный_градиент_5);}.cls-8{fill:url(#Безымянный_градиент_6);}.cls-9{fill:url(#Безымянный_градиент_7);}</style><linearGradient id="Безымянный_градиент" x1="-433.08" y1="-355.46" x2="-307.34" y2="-325.04" gradientTransform="matrix(-1, 0.05, -0.05, -1, -400.74, -298.98)" gradientUnits="userSpaceOnUse"><stop offset="0" stop-color="#383938"/><stop offset="0.14" stop-color="#494948"/><stop offset="0.42" stop-color="#696867"/><stop offset="0.66" stop-color="#828180"/><stop offset="0.86" stop-color="#929191"/><stop offset="1" stop-color="#989898"/></linearGradient><linearGradient id="Безымянный_градиент_2" x1="-300.1" y1="26.09" x2="-278.32" y2="31.89" gradientTransform="matrix(-1, -0.09, 0.09, -1, -162.54, 63.59)" gradientUnits="userSpaceOnUse"><stop offset="0" stop-color="#989898"/><stop offset="0.01" stop-color="#949393"/><stop offset="0.09" stop-color="#797877"/><stop offset="0.17" stop-color="#636261"/><stop offset="0.26" stop-color="#535251"/><stop offset="0.37" stop-color="#474646"/><stop offset="0.49" stop-color="#3e3e3e"/><stop offset="0.66" stop-color="#3a3a3a"/><stop offset="1" stop-color="#383938"/></linearGradient><linearGradient id="Безымянный_градиент_3" x1="-154.58" y1="58.64" x2="-210.55" y2="44.07" gradientTransform="matrix(-1, -0.09, 0.09, -1, -162.54, 63.59)" gradientUnits="userSpaceOnUse"><stop offset="0" stop-color="#989898"/><stop offset="0.14" stop-color="#929191"/><stop offset="0.34" stop-color="#828180"/><stop offset="0.58" stop-color="#696867"/><stop offset="0.86" stop-color="#494948"/><stop offset="1" stop-color="#383938"/></linearGradient><linearGradient id="Безымянный_градиент_4" x1="-244.87" y1="17.31" x2="-293.08" y2="22.59" gradientTransform="matrix(-1, -0.09, 0.09, -1, -162.54, 63.59)" gradientUnits="userSpaceOnUse"><stop offset="0" stop-color="#231f20"/><stop offset="0.29" stop-color="#242121"/><stop offset="0.44" stop-color="#292526"/><stop offset="0.56" stop-color="#312d2e"/><stop offset="0.66" stop-color="#3c3838"/><stop offset="0.75" stop-color="#4a4647"/><stop offset="0.83" stop-color="#5c5959"/><stop offset="0.91" stop-color="#747272"/><stop offset="0.98" stop-color="#919090"/><stop offset="1" stop-color="#989898"/></linearGradient><linearGradient id="Безымянный_градиент_5" x1="45.01" y1="118.63" x2="92.22" y2="118.63" gradientTransform="matrix(1, 0, 0, -1, 0, 165.6)" gradientUnits="userSpaceOnUse"><stop offset="0" stop-color="#989898"/><stop offset="0.01" stop-color="#908f8f"/><stop offset="0.07" stop-color="#717070"/><stop offset="0.13" stop-color="#565656"/><stop offset="0.2" stop-color="#424241"/><stop offset="0.28" stop-color="#313131"/><stop offset="0.36" stop-color="#232423"/><stop offset="0.45" stop-color="#161717"/><stop offset="0.56" stop-color="#0b0c0c"/><stop offset="0.7" stop-color="#030403"/><stop offset="1" stop-color="#010101"/></linearGradient><linearGradient id="Безымянный_градиент_6" x1="-93.53" y1="70.95" x2="-131.02" y2="75.76" gradientTransform="translate(-65.31 164.85) rotate(-172.69)" gradientUnits="userSpaceOnUse"><stop offset="0" stop-color="#818285"/><stop offset="0.01" stop-color="#7e8082"/><stop offset="0.09" stop-color="#656466"/><stop offset="0.17" stop-color="#504e4f"/><stop offset="0.26" stop-color="#3f3d3e"/><stop offset="0.35" stop-color="#333031"/><stop offset="0.45" stop-color="#2a2728"/><stop offset="0.55" stop-color="#252122"/><stop offset="0.68" stop-color="#231f20"/></linearGradient><linearGradient id="Безымянный_градиент_7" x1="-278.79" y1="-19.78" x2="-203.16" y2="8.58" gradientTransform="matrix(-1, -0.09, 0.09, -1, -162.54, 63.59)" gradientUnits="userSpaceOnUse"><stop offset="0" stop-color="#d2d3d4"/><stop offset="0.01" stop-color="#c6c7c8"/><stop offset="0.12" stop-color="#8f8e8e"/><stop offset="0.23" stop-color="#656464"/><stop offset="0.34" stop-color="#474646"/><stop offset="0.45" stop-color="#313130"/><stop offset="0.57" stop-color="#1f1f1f"/><stop offset="0.7" stop-color="#111"/><stop offset="0.83" stop-color="#050505"/><stop offset="1" stop-color="#010101"/></linearGradient></defs><title>Ресурс 1</title><g id="Слой_2" data-name="Слой 2"><g id="Layer_1" data-name="Layer 1"><circle class="cls-1" cx="75.24" cy="81.67" r="75.24"/><path class="cls-2" d="M79.07,117v-7.72l21.69-8.64v7.72L86.49,113.1l14.27,4.76v7.77Z"/><path class="cls-2" d="M114.69,125.57v2.88H106.4V96.6h8.29V108a8.67,8.67,0,0,1,7.16-3.67c5.63,0,10.47,4.67,10.47,12.31S127.48,129,121.89,129A8.87,8.87,0,0,1,114.69,125.57Zm9.47-9c0-3.1-2.14-5.32-4.84-5.32s-4.8,2.23-4.8,5.41,2.14,5.37,4.8,5.37S124.16,119.86,124.16,116.58Z"/><path class="cls-2" d="M136.08,96.6h8.29v31.86h-8.29Z"/><path class="cls-2" d="M147.82,121.6c0-4.89,3.71-7.42,9.25-7.42a18.07,18.07,0,0,1,5.67.92v-.39c0-2.44-1.53-3.84-4.71-3.84a16.57,16.57,0,0,0-6.5,1.31l-1.7-5.85a23.74,23.74,0,0,1,9.56-1.83c4.23,0,7.11,1,9,2.88s2.53,4.19,2.53,7.51v13.57h-8.2V126a8.9,8.9,0,0,1-6.94,3C151.26,129,147.82,126.4,147.82,121.6Zm15-1.7v-1.09a8.68,8.68,0,0,0-3.23-.61c-2.4,0-3.8,1.18-3.8,3,0,1.61,1.22,2.57,2.92,2.57A3.79,3.79,0,0,0,162.83,119.9Z"/><path class="cls-2" d="M174.18,116.67a12.27,12.27,0,0,1,12.66-12.31c4.84,0,8.07,2.09,10.08,5.28l-5.54,4a5,5,0,0,0-4.28-2.31c-3,0-4.84,2.36-4.84,5.32S184.18,122,187,122c2,0,3.14-1,4.45-2.49l5.63,4.06c-2.18,3.23-5.32,5.41-10.52,5.41A12.19,12.19,0,0,1,174.18,116.67Z"/><path class="cls-2" d="M200,96.6h8.29v16.15l6.42-7.9h9.38l-8.21,9.47,8.42,14.14h-9.12l-4.76-8-2.14,2.49v5.54H200V96.6Z"/><path class="cls-2" d="M234.58,125.57v2.88h-8.29V96.6h8.29V108a8.67,8.67,0,0,1,7.16-3.67c5.63,0,10.47,4.67,10.47,12.31S247.37,129,241.78,129A8.87,8.87,0,0,1,234.58,125.57Zm9.47-9c0-3.1-2.14-5.32-4.84-5.32s-4.8,2.23-4.8,5.41,2.14,5.37,4.8,5.37S244.05,119.86,244.05,116.58Z"/><path class="cls-2" d="M255.8,96.6h8.64v6.11H255.8Zm.17,8.24h8.29v23.61H256Z"/><path class="cls-2" d="M268.89,104.84h8.29v4.76c1.35-3.23,3.53-5.32,7.46-5.15v8.73h-.7c-4.32,0-6.76,2.49-6.76,7.94v7.33h-8.29V104.84Z"/><path class="cls-2" d="M286.26,116.67c0-7.68,4.8-12.35,10.39-12.35a9,9,0,0,1,7.24,3.4V96.6h8.29v31.86h-8.29v-3.14a8.76,8.76,0,0,1-7.2,3.67C291.1,129,286.26,124.31,286.26,116.67Zm17.76-.09c0-3.1-2.14-5.32-4.8-5.32s-4.84,2.18-4.84,5.41,2.18,5.37,4.84,5.37S304,119.81,304,116.58Z"/><path class="cls-2" d="M317.82,117.89l14.27-4.76-14.27-4.76V100.6l21.69,8.64V117l-21.69,8.64Z"/><polygon class="cls-3" points="50.48 13.54 46.65 58.93 5.84 7.51 50.48 13.54"/><polygon class="cls-4" points="126.87 52.22 136.82 69.65 109.15 61.21 126.87 52.22"/><polygon class="cls-5" points="59.12 14.55 46.82 63.56 11.33 0 59.12 14.55"/><polygon class="cls-6" points="65.7 71.44 114.84 48.03 126.87 52.22 113.79 86.88 65.7 71.44"/><polygon class="cls-7" points="45.01 63.06 59.12 14.55 92.22 79.39 45.01 63.06"/><polygon class="cls-8" points="72.04 114.62 34.12 136.65 52.16 76.09 72.04 114.62"/><polygon class="cls-9" points="68.44 107.81 45.01 63.06 113.79 86.88 68.44 107.81"/></g></g></svg>