<svg xmlns="http://www.w3.org/2000/svg" xmlns:xlink="http://www.w3.org/1999/xlink" viewBox="0 0 465.75 205.36"><defs><style>.cls-1{fill:#399ccb;}.cls-2{fill:#050505;}.cls-3{fill:url(#Безымянный_градиент);}.cls-4{fill:url(#Безымянный_градиент_2);}.cls-5{fill:url(#Безымянный_градиент_3);}.cls-6{fill:url(#Безымянный_градиент_4);}.cls-7{fill:url(#Безымянный_градиент_5);}.cls-8{fill:url(#Безымянный_градиент_6);}.cls-9{fill:url(#Безымянный_градиент_7);}</style><linearGradient id="Безымянный_градиент" x1="528.73" y1="-304.99" x2="697.02" y2="-264.29" gradientTransform="matrix(-1, 0.05, -0.05, -1, 587.74, -281.68)" gradientUnits="userSpaceOnUse"><stop offset="0" stop-color="#383838"/><stop offset="0.28" stop-color="#5c5c5c"/><stop offset="0.58" stop-color="#7d7d7d"/><stop offset="0.83" stop-color="#929292"/><stop offset="1" stop-color="#999"/></linearGradient><linearGradient id="Безымянный_градиент_2" x1="686.7" y1="4.68" x2="715.92" y2="12.45" gradientTransform="matrix(-1, -0.09, 0.09, -1, 878.99, 149.93)" gradientUnits="userSpaceOnUse"><stop offset="0" stop-color="#999"/><stop offset="0.01" stop-color="#959595"/><stop offset="0.1" stop-color="#797979"/><stop offset="0.2" stop-color="#616161"/><stop offset="0.31" stop-color="#4f4f4f"/><stop offset="0.45" stop-color="#424242"/><stop offset="0.63" stop-color="#3a3a3a"/><stop offset="1" stop-color="#383838"/></linearGradient><linearGradient id="Безымянный_градиент_3" x1="881.73" y1="47.63" x2="807.21" y2="28.23" gradientTransform="matrix(-1, -0.09, 0.09, -1, 878.99, 149.93)" gradientUnits="userSpaceOnUse"><stop offset="0" stop-color="#999"/><stop offset="0.17" stop-color="#929292"/><stop offset="0.42" stop-color="#7d7d7d"/><stop offset="0.72" stop-color="#5c5c5c"/><stop offset="1" stop-color="#383838"/></linearGradient><linearGradient id="Безымянный_градиент_4" x1="760.9" y1="-6.8" x2="696.04" y2="0.3" gradientTransform="matrix(-1, -0.09, 0.09, -1, 878.99, 149.93)" gradientUnits="userSpaceOnUse"><stop offset="0" stop-color="#231f20"/><stop offset="0.32" stop-color="#252122"/><stop offset="0.49" stop-color="#2d292a"/><stop offset="0.63" stop-color="#3a3737"/><stop offset="0.74" stop-color="#4c4a4a"/><stop offset="0.84" stop-color="#646363"/><stop offset="0.94" stop-color="#818181"/><stop offset="1" stop-color="#999"/></linearGradient><linearGradient id="Безымянный_градиент_5" x1="69.48" y1="144.15" x2="133" y2="144.15" gradientTransform="matrix(1, 0, 0, -1, 0, 205.62)" gradientUnits="userSpaceOnUse"><stop offset="0" stop-color="#999"/><stop offset="0.04" stop-color="gray"/><stop offset="0.12" stop-color="#5e5e5e"/><stop offset="0.2" stop-color="#414141"/><stop offset="0.29" stop-color="#292929"/><stop offset="0.39" stop-color="#171717"/><stop offset="0.51" stop-color="#0a0a0a"/><stop offset="0.67" stop-color="#020202"/><stop offset="1"/></linearGradient><linearGradient id="Безымянный_градиент_6" x1="940.96" y1="13.45" x2="890.51" y2="19.93" gradientTransform="translate(989.65 272.25) rotate(-172.69)" gradientUnits="userSpaceOnUse"><stop offset="0" stop-color="#808285"/><stop offset="0.05" stop-color="#717375"/><stop offset="0.16" stop-color="#555456"/><stop offset="0.27" stop-color="#3f3d3e"/><stop offset="0.39" stop-color="#2f2c2d"/><stop offset="0.52" stop-color="#262223"/><stop offset="0.68" stop-color="#231f20"/></linearGradient><linearGradient id="Безымянный_градиент_7" x1="715.23" y1="-55.66" x2="816.61" y2="-17.64" gradientTransform="matrix(-1, -0.09, 0.09, -1, 878.99, 149.93)" gradientUnits="userSpaceOnUse"><stop offset="0" stop-color="#d1d3d4"/><stop offset="0.09" stop-color="#a6a8a9"/><stop offset="0.2" stop-color="#7b7c7c"/><stop offset="0.32" stop-color="#555656"/><stop offset="0.44" stop-color="#363737"/><stop offset="0.56" stop-color="#1e1e1f"/><stop offset="0.69" stop-color="#0d0d0d"/><stop offset="0.83" stop-color="#030303"/><stop offset="1"/></linearGradient></defs><title>Ресурс 1</title><g id="Слой_2" data-name="Слой 2"><g id="Layer_1" data-name="Layer 1"><ellipse class="cls-1" cx="101.24" cy="106.89" rx="101.24" ry="98.47"/><path class="cls-2" d="M115.32,153.1V143l29.18-11.31v10.11L125.3,148l19.2,6.23v10.17Z"/><path class="cls-2" d="M163.24,164.35v3.77H152.08v-41.7h11.16v14.91c2.17-2.57,4.87-4.8,9.63-4.8,7.58,0,14.09,6.11,14.09,16.11s-6.52,16.16-14,16.16A12,12,0,0,1,163.24,164.35ZM176,152.59c0-4.06-2.88-7-6.52-7S163,148.53,163,152.7s2.88,7,6.46,7S176,156.87,176,152.59Z"/><path class="cls-2" d="M192,126.43h11.16v41.7H192Z"/><path class="cls-2" d="M207.82,159.15c0-6.4,5-9.71,12.45-9.71a24.88,24.88,0,0,1,7.63,1.2v-.51c0-3.2-2.06-5-6.34-5a23,23,0,0,0-8.75,1.71l-2.29-7.65a32.65,32.65,0,0,1,12.86-2.4c5.7,0,9.57,1.31,12.1,3.77,2.41,2.28,3.41,5.48,3.41,9.82v17.76h-11v-3.2a12.14,12.14,0,0,1-9.34,3.88C212.46,168.81,207.82,165.44,207.82,159.15Zm20.2-2.22V155.5a11.93,11.93,0,0,0-4.35-.8c-3.23,0-5.11,1.54-5.11,3.94,0,2.11,1.65,3.37,3.93,3.37C225.73,162,228,160,228,156.93Z"/><path class="cls-2" d="M243.29,152.7c0-8.74,7-16.11,17-16.11,6.52,0,10.86,2.74,13.57,6.91l-7.46,5.26a6.74,6.74,0,0,0-5.76-3c-4.05,0-6.52,3.08-6.52,7s2.58,7,6.34,7c2.64,0,4.23-1.26,6-3.26l7.58,5.31c-2.94,4.23-7.16,7.08-14.15,7.08A16.2,16.2,0,0,1,243.29,152.7Z"/><path class="cls-2" d="M278,126.43h11.16v21.13l8.63-10.34h12.63l-11,12.39,11.33,18.51H298.44L292,157.61l-2.88,3.26v7.25H278Z"/><path class="cls-2" d="M324.57,164.35v3.77H313.41v-41.7h11.16v14.91c2.17-2.57,4.87-4.8,9.63-4.8,7.58,0,14.09,6.11,14.09,16.11s-6.52,16.16-14,16.16A12,12,0,0,1,324.57,164.35Zm12.75-11.76c0-4.06-2.88-7-6.52-7s-6.46,2.91-6.46,7.08,2.88,7,6.46,7S337.32,156.87,337.32,152.59Z"/><path class="cls-2" d="M353.12,126.43h11.63v8H353.12Zm.23,10.79h11.16v30.9H353.35Z"/><path class="cls-2" d="M370.74,137.22H381.9v6.23c1.82-4.23,4.76-7,10-6.74v11.42H391c-5.81,0-9.1,3.26-9.1,10.4v9.6H370.74Z"/><path class="cls-2" d="M394.11,152.7c0-10,6.46-16.16,14-16.16a12.27,12.27,0,0,1,9.75,4.46V126.43H429v41.7H417.84V164c-2.17,2.57-4.93,4.8-9.69,4.8C400.63,168.81,394.11,162.7,394.11,152.7Zm23.9-.11c0-4.06-2.88-7-6.46-7S405,148.48,405,152.7s2.94,7,6.52,7S418,156.81,418,152.59Z"/><path class="cls-2" d="M436.57,154.3l19.2-6.23-19.2-6.23V131.67L465.75,143v10.11L436.57,164.4Z"/><polygon class="cls-3" points="76.84 17.72 71.69 77.13 16.77 9.83 76.84 17.72"/><polygon class="cls-4" points="179.63 68.34 193.02 91.16 155.78 80.1 179.63 68.34"/><polygon class="cls-5" points="88.47 19.04 71.91 83.19 24.16 0 88.47 19.04"/><polygon class="cls-6" points="97.32 93.49 163.45 62.86 179.63 68.34 162.03 113.71 97.32 93.49"/><polygon class="cls-7" points="69.48 82.53 88.47 19.04 133 103.91 69.48 82.53"/><polygon class="cls-8" points="105.85 150.02 54.83 178.84 79.1 99.59 105.85 150.02"/><polygon class="cls-9" points="101 141.11 69.48 82.53 162.03 113.71 101 141.11"/></g></g></svg>